<svg id="visual" viewBox="0 0 900 600" width="900" height="600" xmlns="http://www.w3.org/2000/svg" xmlns:xlink="http://www.w3.org/1999/xlink" version="1.1"><rect x="0" y="0" width="900" height="600" fill="#FFFFFF"></rect><path d="M71 0L84.2 9.2C97.3 18.3 123.7 36.7 119.2 54.8C114.7 73 79.3 91 63 109.2C46.7 127.3 49.3 145.7 50.2 163.8C51 182 50 200 68.3 218.2C86.7 236.3 124.3 254.7 143.5 272.8C162.7 291 163.3 309 145 327.2C126.7 345.3 89.3 363.7 87.7 381.8C86 400 120 418 130 436.2C140 454.3 126 472.7 119.5 490.8C113 509 114 527 120.2 545.2C126.3 563.3 137.7 581.7 143.3 590.8L149 600L0 600L0 590.8C0 581.7 0 563.3 0 545.2C0 527 0 509 0 490.8C0 472.7 0 454.3 0 436.2C0 418 0 400 0 381.8C0 363.7 0 345.3 0 327.2C0 309 0 291 0 272.8C0 254.7 0 236.3 0 218.2C0 200 0 182 0 163.8C0 145.7 0 127.3 0 109.2C0 91 0 73 0 54.8C0 36.7 0 18.3 0 9.2L0 0Z" fill="#ffffff"></path><path d="M130 0L122.8 9.2C115.7 18.3 101.3 36.7 92.7 54.8C84 73 81 91 88.5 109.2C96 127.3 114 145.7 116.2 163.8C118.3 182 104.7 200 104.5 218.2C104.3 236.3 117.7 254.7 124.2 272.8C130.7 291 130.3 309 124.7 327.2C119 345.3 108 363.7 94.8 381.8C81.7 400 66.3 418 62.3 436.2C58.3 454.3 65.7 472.7 78.7 490.8C91.7 509 110.3 527 113.3 545.2C116.3 563.3 103.7 581.7 97.3 590.8L91 600L0 600L0 590.8C0 581.7 0 563.3 0 545.2C0 527 0 509 0 490.8C0 472.7 0 454.3 0 436.2C0 418 0 400 0 381.8C0 363.7 0 345.3 0 327.2C0 309 0 291 0 272.8C0 254.7 0 236.3 0 218.2C0 200 0 182 0 163.8C0 145.7 0 127.3 0 109.2C0 91 0 73 0 54.8C0 36.7 0 18.3 0 9.2L0 0Z" fill="#cbe5da"></path><path d="M26 0L29.3 9.2C32.7 18.3 39.3 36.7 50.5 54.8C61.7 73 77.3 91 85.7 109.2C94 127.3 95 145.7 93.2 163.8C91.3 182 86.7 200 78.2 218.2C69.7 236.3 57.3 254.7 49 272.8C40.7 291 36.3 309 41.3 327.2C46.3 345.3 60.7 363.7 70 381.8C79.3 400 83.7 418 86.8 436.2C90 454.3 92 472.7 84 490.8C76 509 58 527 51.8 545.2C45.7 563.3 51.3 581.7 54.2 590.8L57 600L0 600L0 590.8C0 581.7 0 563.3 0 545.2C0 527 0 509 0 490.8C0 472.7 0 454.3 0 436.2C0 418 0 400 0 381.8C0 363.7 0 345.3 0 327.2C0 309 0 291 0 272.8C0 254.7 0 236.3 0 218.2C0 200 0 182 0 163.8C0 145.7 0 127.3 0 109.2C0 91 0 73 0 54.8C0 36.7 0 18.3 0 9.2L0 0Z" fill="#96cab7"></path><path d="M51 0L51.8 9.2C52.7 18.3 54.3 36.7 58.7 54.8C63 73 70 91 63.7 109.2C57.3 127.3 37.7 145.7 34.7 163.8C31.7 182 45.3 200 51.3 218.2C57.3 236.3 55.7 254.7 53.8 272.8C52 291 50 309 49 327.2C48 345.3 48 363.7 53.5 381.8C59 400 70 418 66.8 436.2C63.7 454.3 46.3 472.7 46.5 490.8C46.7 509 64.3 527 68.3 545.2C72.3 563.3 62.7 581.7 57.8 590.8L53 600L0 600L0 590.8C0 581.7 0 563.3 0 545.2C0 527 0 509 0 490.8C0 472.7 0 454.3 0 436.2C0 418 0 400 0 381.8C0 363.7 0 345.3 0 327.2C0 309 0 291 0 272.8C0 254.7 0 236.3 0 218.2C0 200 0 182 0 163.8C0 145.7 0 127.3 0 109.2C0 91 0 73 0 54.8C0 36.7 0 18.3 0 9.2L0 0Z" fill="#5eaf94"></path><path d="M31 0L30.5 9.2C30 18.3 29 36.7 30.2 54.8C31.3 73 34.7 91 31.3 109.2C28 127.3 18 145.7 17.3 163.8C16.7 182 25.3 200 32 218.2C38.7 236.3 43.3 254.7 41.5 272.8C39.7 291 31.3 309 28.5 327.2C25.7 345.3 28.3 363.7 29.8 381.8C31.3 400 31.7 418 34.2 436.2C36.7 454.3 41.3 472.7 44.3 490.8C47.3 509 48.7 527 42.2 545.2C35.7 563.3 21.3 581.7 14.2 590.8L7 600L0 600L0 590.8C0 581.7 0 563.3 0 545.2C0 527 0 509 0 490.8C0 472.7 0 454.3 0 436.2C0 418 0 400 0 381.8C0 363.7 0 345.3 0 327.2C0 309 0 291 0 272.8C0 254.7 0 236.3 0 218.2C0 200 0 182 0 163.8C0 145.7 0 127.3 0 109.2C0 91 0 73 0 54.8C0 36.7 0 18.3 0 9.2L0 0Z" fill="#009473"></path></svg>