<svg id="visual" viewBox="0 0 900 600" width="900" height="600" xmlns="http://www.w3.org/2000/svg" xmlns:xlink="http://www.w3.org/1999/xlink" version="1.1"><rect x="0" y="0" width="900" height="600" fill="#FFFFFF"></rect><path d="M0 372L21.5 377.3C43 382.7 86 393.3 128.8 401.7C171.7 410 214.3 416 257.2 413.3C300 410.7 343 399.3 385.8 395.8C428.7 392.3 471.3 396.7 514.2 398.7C557 400.7 600 400.3 642.8 398.2C685.7 396 728.3 392 771.2 385.2C814 378.3 857 368.7 878.5 363.8L900 359L900 601L878.5 601C857 601 814 601 771.2 601C728.3 601 685.7 601 642.8 601C600 601 557 601 514.2 601C471.3 601 428.7 601 385.8 601C343 601 300 601 257.2 601C214.3 601 171.7 601 128.8 601C86 601 43 601 21.5 601L0 601Z" fill="#ffffff"></path><path d="M0 397L21.5 401.3C43 405.7 86 414.3 128.8 423C171.7 431.7 214.3 440.3 257.2 441.2C300 442 343 435 385.8 430.5C428.7 426 471.3 424 514.2 431.7C557 439.3 600 456.7 642.8 458.5C685.7 460.3 728.3 446.7 771.2 435.5C814 424.3 857 415.7 878.5 411.3L900 407L900 601L878.5 601C857 601 814 601 771.2 601C728.3 601 685.7 601 642.8 601C600 601 557 601 514.2 601C471.3 601 428.7 601 385.8 601C343 601 300 601 257.2 601C214.3 601 171.7 601 128.8 601C86 601 43 601 21.5 601L0 601Z" fill="#cbe5da"></path><path d="M0 450L21.5 459.8C43 469.7 86 489.3 128.8 490.2C171.7 491 214.3 473 257.2 471.2C300 469.3 343 483.7 385.8 482.7C428.7 481.7 471.3 465.3 514.2 457.7C557 450 600 451 642.8 458.8C685.7 466.7 728.3 481.3 771.2 487.5C814 493.7 857 491.3 878.5 490.2L900 489L900 601L878.5 601C857 601 814 601 771.2 601C728.3 601 685.7 601 642.8 601C600 601 557 601 514.2 601C471.3 601 428.7 601 385.8 601C343 601 300 601 257.2 601C214.3 601 171.7 601 128.8 601C86 601 43 601 21.5 601L0 601Z" fill="#96cab7"></path><path d="M0 482L21.5 491.7C43 501.3 86 520.7 128.8 526.8C171.7 533 214.3 526 257.2 519C300 512 343 505 385.8 499.5C428.7 494 471.3 490 514.2 489.2C557 488.3 600 490.7 642.8 498.3C685.7 506 728.3 519 771.2 526.2C814 533.3 857 534.7 878.5 535.3L900 536L900 601L878.5 601C857 601 814 601 771.2 601C728.3 601 685.7 601 642.8 601C600 601 557 601 514.2 601C471.3 601 428.7 601 385.8 601C343 601 300 601 257.2 601C214.3 601 171.7 601 128.8 601C86 601 43 601 21.5 601L0 601Z" fill="#5eaf94"></path><path d="M0 547L21.5 550.7C43 554.3 86 561.7 128.8 564.8C171.7 568 214.3 567 257.2 567.5C300 568 343 570 385.8 570.7C428.7 571.3 471.3 570.7 514.2 565.8C557 561 600 552 642.8 549C685.7 546 728.3 549 771.2 549C814 549 857 546 878.5 544.5L900 543L900 601L878.5 601C857 601 814 601 771.2 601C728.3 601 685.7 601 642.8 601C600 601 557 601 514.2 601C471.3 601 428.7 601 385.8 601C343 601 300 601 257.2 601C214.3 601 171.7 601 128.8 601C86 601 43 601 21.5 601L0 601Z" fill="#009473"></path></svg>